<svg aria-hidden="true" style="position: absolute; width: 0; height: 0; overflow: hidden;" version="1.1" xmlns="http://www.w3.org/2000/svg" xmlns:xlink="http://www.w3.org/1999/xlink">
<defs>
<symbol id="icon-close" viewBox="0 0 32 32">
<path d="M0.78-0.547l31.21 31.21-0.78 0.78-31.21-31.21 0.78-0.78z"></path>
<path d="M31.21-0.547l-31.21 31.21 0.78 0.78 31.21-31.21-0.78-0.78z"></path>
</symbol>
<symbol id="icon-menu" viewBox="0 0 32 32">
<path d="M-0.87 11.556h32.87v0.889h-32.87v-0.889z"></path>
<path d="M-0.87 19.556h32.87v0.889h-32.87v-0.889z"></path>
</symbol>
<symbol id="icon-label" viewBox="0 0 32 32">
<path d="M8.942 1.58l0.833-0.359c0.385-0.159 0.677-0.040 0.834 0.305 0.159 0.359 0.040 0.663-0.343 0.823l-0.583 0.253 0.345 0.784-0.253 0.106-0.833-1.912zM9.59 2.376l0.503-0.211c0.292-0.121 0.359-0.307 0.265-0.533-0.092-0.224-0.278-0.292-0.57-0.173l-0.503 0.213 0.305 0.704z"></path>
<path d="M8.942 1.58l0.833-0.359c0.385-0.159 0.677-0.040 0.834 0.305 0.159 0.359 0.040 0.663-0.343 0.823l-0.583 0.253 0.345 0.784-0.253 0.106-0.833-1.912zM9.59 2.376l0.503-0.211c0.292-0.121 0.359-0.307 0.265-0.533-0.092-0.224-0.278-0.292-0.57-0.173l-0.503 0.213 0.305 0.704z"></path>
<path d="M12.768 0.278l0.967-0.146c0.384-0.054 0.662 0.119 0.702 0.451 0.040 0.253-0.040 0.466-0.278 0.571 0.251 0.013 0.318 0.173 0.37 0.372 0.054 0.199 0.067 0.426 0.213 0.544l-0.305 0.040c-0.094-0.067-0.080-0.307-0.146-0.491-0.054-0.199-0.132-0.359-0.397-0.32l-0.662 0.107 0.132 0.876-0.278 0.040-0.318-2.046zM13.748 1.101c0.251-0.039 0.462-0.132 0.424-0.437-0.027-0.199-0.159-0.332-0.424-0.293l-0.675 0.107 0.106 0.717 0.57-0.094z"></path>
<path d="M12.768 0.278l0.967-0.146c0.384-0.054 0.662 0.119 0.702 0.451 0.040 0.253-0.040 0.466-0.278 0.571 0.251 0.013 0.318 0.173 0.37 0.372 0.054 0.199 0.067 0.426 0.213 0.544l-0.305 0.040c-0.094-0.067-0.080-0.307-0.146-0.491-0.054-0.199-0.132-0.359-0.397-0.32l-0.662 0.107 0.132 0.876-0.278 0.040-0.318-2.046zM13.748 1.101c0.251-0.039 0.462-0.132 0.424-0.437-0.027-0.199-0.159-0.332-0.424-0.293l-0.675 0.107 0.106 0.717 0.57-0.094z"></path>
<path d="M16.9 0l1.429 0.146-0.027 0.238-1.151-0.119-0.067 0.663 1.074 0.107-0.027 0.238-1.072-0.106-0.080 0.717 1.166 0.106-0.027 0.24-1.431-0.159 0.213-2.071z"></path>
<path d="M16.9 0l1.429 0.146-0.027 0.238-1.151-0.119-0.067 0.663 1.074 0.107-0.027 0.238-1.072-0.106-0.080 0.717 1.166 0.106-0.027 0.24-1.431-0.159 0.213-2.071z"></path>
<path d="M20.805 0.715l0.359 0.147-0.027 1.871 1.258-1.381 0.357 0.146-0.767 1.938-0.265-0.119 0.635-1.62-1.245 1.381-0.224-0.092 0.025-1.86-0.635 1.62-0.238-0.092 0.767-1.94z"></path>
<path d="M20.805 0.715l0.359 0.147-0.027 1.871 1.258-1.381 0.357 0.146-0.767 1.938-0.265-0.119 0.635-1.62-1.245 1.381-0.224-0.092 0.025-1.86-0.635 1.62-0.238-0.092 0.767-1.94z"></path>
<path d="M24.963 2.815l0.224 0.159-1.205 1.701-0.224-0.159 1.205-1.701z"></path>
<path d="M24.963 2.815l0.224 0.159-1.205 1.701-0.224-0.159 1.205-1.701z"></path>
<path d="M27.294 6.745c-0.384 0.359-0.794 0.318-1.139-0.067-0.357-0.397-0.384-0.796 0.027-1.168l0.98-0.89 0.186 0.199-0.994 0.89c-0.278 0.251-0.278 0.545-0.040 0.809 0.24 0.266 0.516 0.266 0.782 0.027l0.978-0.89 0.186 0.199-0.967 0.89z"></path>
<path d="M27.294 6.745c-0.384 0.359-0.794 0.318-1.139-0.067-0.357-0.397-0.384-0.796 0.027-1.168l0.98-0.89 0.186 0.199-0.994 0.89c-0.278 0.251-0.278 0.545-0.040 0.809 0.24 0.266 0.516 0.266 0.782 0.027l0.978-0.89 0.186 0.199-0.967 0.89z"></path>
<path d="M29.783 8.047l0.173 0.345-1.285 1.355 1.853-0.173 0.173 0.345-1.866 0.916-0.119-0.24 1.561-0.757-1.84 0.173-0.107-0.211 1.272-1.342-1.561 0.757-0.121-0.24 1.868-0.93z"></path>
<path d="M29.783 8.047l0.173 0.345-1.285 1.355 1.853-0.173 0.173 0.345-1.866 0.916-0.119-0.24 1.561-0.757-1.84 0.173-0.107-0.211 1.272-1.342-1.561 0.757-0.121-0.24 1.868-0.93z"></path>
<path d="M31.836 15.311l-0.013 0.982c0 0.385-0.224 0.625-0.556 0.625-0.251 0-0.449-0.119-0.516-0.372-0.054 0.24-0.224 0.292-0.437 0.305-0.198 0.013-0.437 0-0.57 0.121v-0.307c0.080-0.079 0.305-0.027 0.518-0.065 0.198-0.027 0.37-0.067 0.384-0.345l0.013-0.679-0.888-0.013v-0.278l2.066 0.027zM30.869 16.147c0 0.266 0.054 0.479 0.359 0.491 0.198 0 0.357-0.106 0.357-0.37l0.013-0.692-0.729-0.013v0.585z"></path>
<path d="M31.836 15.311l-0.013 0.982c0 0.385-0.224 0.625-0.556 0.625-0.251 0-0.449-0.119-0.516-0.372-0.054 0.24-0.224 0.292-0.437 0.305-0.198 0.013-0.437 0-0.57 0.121v-0.307c0.080-0.079 0.305-0.027 0.518-0.065 0.198-0.027 0.37-0.067 0.384-0.345l0.013-0.679-0.888-0.013v-0.278l2.066 0.027zM30.869 16.147c0 0.266 0.054 0.479 0.359 0.491 0.198 0 0.357-0.106 0.357-0.37l0.013-0.692-0.729-0.013v0.585z"></path>
<path d="M31.28 20.317c-0.186 0.638-0.781 0.824-1.324 0.665-0.544-0.159-0.955-0.625-0.782-1.262 0.186-0.638 0.782-0.824 1.325-0.665s0.953 0.625 0.781 1.262zM29.4 19.786c-0.132 0.493 0.224 0.811 0.622 0.93s0.888 0.027 1.020-0.464c0.132-0.493-0.226-0.811-0.623-0.93-0.397-0.107-0.873-0.027-1.019 0.464z"></path>
<path d="M31.28 20.317c-0.186 0.638-0.781 0.824-1.324 0.665-0.544-0.159-0.955-0.625-0.782-1.262 0.186-0.638 0.782-0.824 1.325-0.665s0.953 0.625 0.781 1.262zM29.4 19.786c-0.132 0.493 0.224 0.811 0.622 0.93s0.888 0.027 1.020-0.464c0.132-0.493-0.226-0.811-0.623-0.93-0.397-0.107-0.873-0.027-1.019 0.464z"></path>
<path d="M29.492 24.369c-0.345 0.558-0.967 0.571-1.456 0.278-0.477-0.292-0.756-0.863-0.399-1.421 0.345-0.558 0.967-0.571 1.458-0.278 0.476 0.292 0.754 0.849 0.397 1.421zM27.837 23.345c-0.265 0.439-0.013 0.851 0.345 1.064 0.357 0.224 0.833 0.265 1.111-0.159 0.265-0.439 0.013-0.851-0.343-1.064-0.357-0.224-0.848-0.278-1.112 0.159z"></path>
<path d="M29.492 24.369c-0.345 0.558-0.967 0.571-1.456 0.278-0.477-0.292-0.756-0.863-0.399-1.421 0.345-0.558 0.967-0.571 1.458-0.278 0.476 0.292 0.754 0.849 0.397 1.421zM27.837 23.345c-0.265 0.439-0.013 0.851 0.345 1.064 0.357 0.224 0.833 0.265 1.111-0.159 0.265-0.439 0.013-0.851-0.343-1.064-0.357-0.224-0.848-0.278-1.112 0.159z"></path>
<path d="M27.294 27.156l-0.278 0.253-1.655-0.863 0.675 1.752-0.278 0.253-1.391-1.555 0.199-0.173 1.151 1.288-0.675-1.726 0.173-0.159 1.642 0.863-1.153-1.288 0.199-0.173 1.391 1.526z"></path>
<path d="M27.294 27.156l-0.278 0.253-1.655-0.863 0.675 1.752-0.278 0.253-1.391-1.555 0.199-0.173 1.151 1.288-0.675-1.726 0.173-0.159 1.642 0.863-1.153-1.288 0.199-0.173 1.391 1.526z"></path>
<path d="M22.169 29.973c0.159 0.253 0.399 0.278 0.65 0.159 0.211-0.106 0.384-0.278 0.265-0.531-0.107-0.226-0.424-0.119-0.769-0.040-0.33 0.080-0.675 0.121-0.859-0.251-0.199-0.399 0.119-0.744 0.462-0.916 0.424-0.199 0.875-0.173 1.099 0.278l-0.238 0.119c-0.159-0.318-0.477-0.318-0.767-0.186-0.226 0.107-0.437 0.307-0.305 0.571 0.119 0.253 0.451 0.159 0.781 0.080 0.332-0.080 0.675-0.146 0.834 0.199 0.186 0.385-0.067 0.717-0.41 0.876-0.384 0.186-0.754 0.146-0.98-0.253l0.238-0.106z"></path>
<path d="M22.169 29.973c0.159 0.253 0.399 0.278 0.65 0.159 0.211-0.106 0.384-0.278 0.265-0.531-0.107-0.226-0.424-0.119-0.769-0.040-0.33 0.080-0.675 0.121-0.859-0.251-0.199-0.399 0.119-0.744 0.462-0.916 0.424-0.199 0.875-0.173 1.099 0.278l-0.238 0.119c-0.159-0.318-0.477-0.318-0.767-0.186-0.226 0.107-0.437 0.307-0.305 0.571 0.119 0.253 0.451 0.159 0.781 0.080 0.332-0.080 0.675-0.146 0.834 0.199 0.186 0.385-0.067 0.717-0.41 0.876-0.384 0.186-0.754 0.146-0.98-0.253l0.238-0.106z"></path>
<path d="M19.388 29.72l-0.317 0.080-0.080-0.32 0.318-0.079 0.079 0.318z"></path>
<path d="M19.388 29.72l-0.317 0.080-0.080-0.32 0.318-0.079 0.079 0.318z"></path>
<path d="M14.092 31.832l-0.742-0.121c-0.184-0.027-0.422-0.065-0.529-0.159-0.119-0.106-0.198-0.265-0.171-0.464 0.039-0.226 0.171-0.359 0.384-0.412-0.24-0.092-0.359-0.305-0.305-0.558 0.054-0.305 0.318-0.558 0.715-0.491l0.994 0.159-0.345 2.046zM13.973 30.903l-0.543-0.094c-0.305-0.052-0.451 0.040-0.491 0.253-0.052 0.278 0.146 0.359 0.385 0.399l0.543 0.092 0.106-0.65zM14.119 29.959l-0.689-0.106c-0.238-0.040-0.41 0.079-0.451 0.305-0.040 0.265 0.159 0.372 0.384 0.412l0.623 0.106 0.132-0.717z"></path>
<path d="M14.092 31.832l-0.742-0.121c-0.184-0.027-0.422-0.065-0.529-0.159-0.119-0.106-0.198-0.265-0.171-0.464 0.039-0.226 0.171-0.359 0.384-0.412-0.24-0.092-0.359-0.305-0.305-0.558 0.054-0.305 0.318-0.558 0.715-0.491l0.994 0.159-0.345 2.046zM13.973 30.903l-0.543-0.094c-0.305-0.052-0.451 0.040-0.491 0.253-0.052 0.278 0.146 0.359 0.385 0.399l0.543 0.092 0.106-0.65zM14.119 29.959l-0.689-0.106c-0.238-0.040-0.41 0.079-0.451 0.305-0.040 0.265 0.159 0.372 0.384 0.412l0.623 0.106 0.132-0.717z"></path>
<path d="M9.55 30.584l-0.278-0.121 0.106-2.23 0.278 0.119-0.052 0.663 0.808 0.359 0.464-0.477 0.265 0.119-1.59 1.568zM10.238 29.547l-0.648-0.292-0.080 1.035 0.729-0.744z"></path>
<path d="M9.55 30.584l-0.278-0.121 0.106-2.23 0.278 0.119-0.052 0.663 0.808 0.359 0.464-0.477 0.265 0.119-1.59 1.568zM10.238 29.547l-0.648-0.292-0.080 1.035 0.729-0.744z"></path>
<path d="M6.517 28.87l-0.224-0.186 0.213-2.005-1.061 1.315-0.198-0.159 1.31-1.62 0.238 0.186-0.211 1.992 1.045-1.302 0.199 0.159-1.312 1.62z"></path>
<path d="M6.517 28.87l-0.224-0.186 0.213-2.005-1.061 1.315-0.198-0.159 1.31-1.62 0.238 0.186-0.211 1.992 1.045-1.302 0.199 0.159-1.312 1.62z"></path>
<path d="M3.446 25.897l-0.159-0.226 0.834-0.612-1.458-0.251-0.211-0.293 1.191 0.226 0.478-1.474 0.198 0.278-0.41 1.236 0.464 0.092 0.596-0.426 0.157 0.226-1.68 1.223z"></path>
<path d="M3.446 25.897l-0.159-0.226 0.834-0.612-1.458-0.251-0.211-0.293 1.191 0.226 0.478-1.474 0.198 0.278-0.41 1.236 0.464 0.092 0.596-0.426 0.157 0.226-1.68 1.223z"></path>
<path d="M0.414 19.681l-0.054-0.28 0.875-0.159-0.199-1.076-0.873 0.159-0.054-0.278 2.039-0.385 0.054 0.278-0.94 0.173 0.198 1.077 0.94-0.174 0.054 0.28-2.039 0.385z"></path>
<path d="M0.414 19.681l-0.054-0.28 0.875-0.159-0.199-1.076-0.873 0.159-0.054-0.278 2.039-0.385 0.054 0.278-0.94 0.173 0.198 1.077 0.94-0.174 0.054 0.28-2.039 0.385z"></path>
<path d="M0.003 14.514c0.052-0.663 0.608-0.943 1.178-0.903s1.061 0.426 0.994 1.089c-0.054 0.665-0.61 0.943-1.178 0.903-0.556-0.040-1.047-0.424-0.994-1.089zM1.95 14.687c0.039-0.504-0.372-0.757-0.796-0.796-0.422-0.040-0.873 0.132-0.913 0.637s0.37 0.757 0.794 0.797c0.41 0.052 0.861-0.121 0.915-0.638z"></path>
<path d="M0.003 14.514c0.052-0.663 0.608-0.943 1.178-0.903s1.061 0.426 0.994 1.089c-0.054 0.665-0.61 0.943-1.178 0.903-0.556-0.040-1.047-0.424-0.994-1.089zM1.95 14.687c0.039-0.504-0.372-0.757-0.796-0.796-0.422-0.040-0.873 0.132-0.913 0.637s0.37 0.757 0.794 0.797c0.41 0.052 0.861-0.121 0.915-0.638z"></path>
<path d="M1.116 10.716l-0.238 0.652-0.226-0.080 0.57-1.566 0.224 0.079-0.238 0.652 1.736 0.637-0.094 0.266-1.734-0.638z"></path>
<path d="M1.116 10.716l-0.238 0.652-0.226-0.080 0.57-1.566 0.224 0.079-0.238 0.652 1.736 0.637-0.094 0.266-1.734-0.638z"></path>
<path d="M2.32 7.621l0.794-1.195 0.199 0.132-0.65 0.97 0.543 0.372 0.596-0.903 0.199 0.132-0.596 0.903 0.596 0.399 0.648-0.97 0.198 0.134-0.808 1.208-1.721-1.183z"></path>
<path d="M2.32 7.621l0.794-1.195 0.199 0.132-0.65 0.97 0.543 0.372 0.596-0.903 0.199 0.132-0.596 0.903 0.596 0.399 0.648-0.97 0.198 0.134-0.808 1.208-1.721-1.183z"></path>
<path d="M4.745 4.554l0.198-0.186 1.245 1.369 0.808-0.744 0.159 0.173-1.020 0.93-1.389-1.541z"></path>
<path d="M4.745 4.554l0.198-0.186 1.245 1.369 0.808-0.744 0.159 0.173-1.020 0.93-1.389-1.541z"></path>
</symbol>
<symbol id="icon-text" viewBox="0 0 32 32">
<path d="M1.596 27.406l-0.356-0.831c-0.159-0.384-0.040-0.674 0.303-0.833 0.356-0.157 0.661-0.038 0.818 0.343l0.252 0.583 0.778-0.343 0.106 0.25-1.901 0.831zM2.401 26.759l-0.212-0.502c-0.119-0.29-0.303-0.356-0.528-0.263-0.225 0.091-0.29 0.278-0.172 0.568l0.212 0.5 0.699-0.303z"></path>
<path d="M0.619 24.846l-0.225-0.952c-0.091-0.381 0.068-0.659 0.384-0.74 0.237-0.051 0.475 0 0.593 0.225-0.013-0.25 0.146-0.328 0.343-0.394 0.199-0.068 0.424-0.106 0.528-0.252l0.068 0.303c-0.068 0.093-0.29 0.106-0.477 0.186-0.184 0.078-0.343 0.157-0.29 0.422l0.159 0.659 0.858-0.197 0.066 0.265-2.007 0.475zM1.346 23.803c-0.053-0.252-0.172-0.449-0.462-0.384-0.199 0.053-0.318 0.184-0.265 0.437l0.159 0.672 0.699-0.172-0.131-0.553z"></path>
<path d="M0.078 22.046l-0.078-1.426 0.237-0.013 0.066 1.149 0.659-0.038-0.066-1.070 0.237-0.013 0.053 1.083 0.714-0.040-0.068-1.161 0.237-0.015 0.081 1.439-2.073 0.106z"></path>
<path d="M0.013 19.38l0.053-0.369 1.808-0.424-1.636-0.871 0.053-0.369 2.058 0.263-0.038 0.265-1.717-0.225 1.623 0.871-0.025 0.237-1.797 0.409 1.717 0.225-0.038 0.265-2.060-0.278z"></path>
<path d="M0.619 16.081l0.081-0.265 1.992 0.593-0.078 0.265-1.994-0.593z"></path>
<path d="M2.997 13.652c0.475 0.21 0.606 0.606 0.381 1.068-0.225 0.49-0.581 0.674-1.081 0.437l-1.202-0.555 0.119-0.25 1.202 0.553c0.328 0.159 0.606 0.040 0.752-0.29 0.144-0.316 0.038-0.581-0.29-0.725l-1.202-0.555 0.119-0.25 1.202 0.568z"></path>
<path d="M2.467 11.921l0.225-0.303 1.795 0.502-1.015-1.558 0.225-0.305 1.676 1.229-0.159 0.21-1.386-1.015 1.002 1.545-0.144 0.184-1.77-0.502 1.386 1.017-0.159 0.21-1.676-1.214z"></path>
<path d="M5.754 8.212l0.78-0.581c0.316-0.237 0.634-0.212 0.831 0.053 0.146 0.197 0.186 0.434 0.028 0.634 0.225-0.106 0.369 0 0.502 0.159 0.131 0.157 0.263 0.343 0.434 0.381l-0.25 0.184c-0.119-0.025-0.212-0.223-0.371-0.369-0.144-0.146-0.29-0.25-0.5-0.093l-0.543 0.409 0.528 0.714-0.223 0.172-1.216-1.664zM7.008 8.462c0.212-0.157 0.343-0.343 0.159-0.581-0.119-0.159-0.303-0.21-0.502-0.066l-0.553 0.409 0.434 0.581 0.462-0.343z"></path>
<path d="M8.884 6.152c0.593-0.29 1.121 0.028 1.373 0.543 0.25 0.5 0.184 1.121-0.409 1.411-0.595 0.29-1.123-0.025-1.373-0.54-0.265-0.502-0.187-1.123 0.409-1.413zM9.727 7.894c0.449-0.223 0.449-0.712 0.265-1.081-0.184-0.371-0.568-0.674-1.017-0.449-0.447 0.225-0.447 0.712-0.263 1.083 0.184 0.369 0.568 0.672 1.015 0.447z"></path>
<path d="M11.787 5.069c0.634-0.172 1.096 0.252 1.242 0.793 0.144 0.543-0.040 1.136-0.687 1.308s-1.096-0.25-1.242-0.793c-0.131-0.555 0.053-1.149 0.687-1.308zM12.289 6.945c0.487-0.131 0.581-0.608 0.475-1.002-0.106-0.411-0.422-0.767-0.911-0.648-0.487 0.133-0.581 0.608-0.475 1.005 0.106 0.409 0.422 0.765 0.911 0.646z"></path>
<path d="M14.006 4.66l0.384-0.025 0.737 1.704 0.568-1.77 0.384-0.028 0.106 2.073-0.265 0.015-0.091-1.729-0.555 1.755-0.237 0.013-0.74-1.689 0.093 1.729-0.265 0.013-0.119-2.060z"></path>
<path d="M18.52 5.4c0.015-0.303-0.172-0.449-0.449-0.487-0.223-0.028-0.475 0.013-0.513 0.29-0.040 0.25 0.29 0.343 0.606 0.462 0.318 0.119 0.634 0.278 0.568 0.687-0.066 0.434-0.515 0.553-0.884 0.5-0.462-0.066-0.82-0.343-0.752-0.843l0.263 0.038c-0.053 0.343 0.225 0.543 0.528 0.583 0.252 0.038 0.528 0 0.568-0.305 0.040-0.278-0.278-0.381-0.593-0.5-0.318-0.121-0.634-0.265-0.581-0.634 0.053-0.424 0.462-0.555 0.831-0.502 0.424 0.053 0.714 0.303 0.661 0.752l-0.252-0.040z"></path>
<path d="M19.577 6.826l0.303 0.093-0.093 0.303-0.303-0.093 0.093-0.303z"></path>
<path d="M22.995 6.245l0.661 0.369c0.157 0.093 0.369 0.212 0.434 0.331 0.078 0.131 0.106 0.316 0 0.502-0.106 0.197-0.29 0.276-0.502 0.25 0.199 0.172 0.225 0.409 0.093 0.634-0.146 0.265-0.49 0.409-0.846 0.212l-0.871-0.49 1.030-1.808zM22.336 7.975l0.606 0.343c0.212 0.119 0.409 0.066 0.528-0.133 0.134-0.237-0.025-0.409-0.225-0.528l-0.553-0.303-0.356 0.621zM22.798 7.157l0.475 0.276c0.278 0.159 0.434 0.121 0.54-0.066 0.146-0.25-0.013-0.381-0.225-0.5l-0.475-0.278-0.316 0.568z"></path>
<path d="M25.861 8.106l0.237 0.199-0.699 2.111-0.239-0.197 0.225-0.621-0.672-0.555-0.581 0.331-0.225-0.184 1.954-1.083zM24.922 8.911l0.543 0.449 0.343-0.964-0.886 0.515z"></path>
<path d="M27.471 9.572l0.184 0.225-0.581 1.914 1.28-1.083 0.172 0.197-1.585 1.348-0.197-0.225 0.568-1.901-1.267 1.068-0.172-0.197 1.598-1.346z"></path>
<path d="M29.292 11.923l0.131 0.237-0.896 0.515 1.426 0.394 0.17 0.305-1.161-0.343-0.619 1.399-0.172-0.303 0.54-1.176-0.449-0.144-0.634 0.356-0.131-0.237 1.795-1.002z"></path>
<path d="M31.101 15.869l0.066 0.263-0.871 0.212 0.263 1.055 0.871-0.21 0.068 0.263-2.022 0.49-0.066-0.265 0.924-0.225-0.263-1.055-0.924 0.225-0.066-0.265 2.020-0.487z"></path>
<path d="M31.788 19.67c0.025 0.659-0.477 1.017-1.045 1.043-0.568 0.028-1.096-0.278-1.134-0.937-0.040-0.661 0.475-1.017 1.043-1.043 0.568-0.028 1.096 0.278 1.136 0.937zM29.847 19.764c0.025 0.5 0.475 0.699 0.884 0.672 0.409-0.025 0.846-0.25 0.818-0.752-0.025-0.502-0.475-0.699-0.884-0.672-0.409 0.025-0.846 0.25-0.818 0.752z"></path>
<path d="M31.417 22.298l0.093-0.687 0.225 0.025-0.212 1.651-0.225-0.028 0.093-0.687-1.823-0.237 0.040-0.278 1.808 0.239z"></path>
<path d="M31.286 24.331l-0.409 1.373-0.225-0.066 0.331-1.11-0.634-0.184-0.305 1.030-0.223-0.066 0.303-1.030-0.687-0.197-0.331 1.121-0.225-0.066 0.409-1.386 1.994 0.581z"></path>
<path d="M30.44 26.799l-0.119 0.25-1.664-0.793-0.475 0.992-0.212-0.106 0.593-1.242 1.875 0.899z"></path>
</symbol>
<symbol id="icon-medium-arrow" viewBox="0 0 32 32">
<path stroke-linejoin="miter" stroke-linecap="butt" stroke-miterlimit="4" stroke-width="1.9394" d="M23.273 7.273c0 0 0.562 2.395 2.259 4.461 1.697 2.056 4.529 3.782 4.529 3.782s-2.831 1.716-4.529 3.772c-1.697 2.065-2.259 4.47-2.259 4.47"></path>
<path d="M0 15.030h29.091v0.97h-29.091v-0.97z"></path>
</symbol>
<symbol id="icon-large-arrow" viewBox="0 0 32 32">
<path stroke-linejoin="miter" stroke-linecap="butt" stroke-miterlimit="4" stroke-width="1.0323" d="M24.203 8.946c0 0 0.53 2.006 2.126 3.726 1.593 1.72 4.249 3.155 4.249 3.155s-2.656 1.431-4.249 3.152c-1.597 1.72-2.126 3.73-2.126 3.73"></path>
<path d="M0 16.221v-0.786h29.929v0.786h-29.929z"></path>
<path stroke-linejoin="miter" stroke-linecap="butt" stroke-miterlimit="4" stroke-width="0.3441" d="M0.172 16.049v-0.442h29.585v0.442h-29.585z"></path>
</symbol>
<symbol id="icon-small-arrow" viewBox="0 0 32 32">
<path stroke-linejoin="miter" stroke-linecap="butt" stroke-miterlimit="4" stroke-width="1.4884" d="M18.984 3.55c0 0 0.9 3.446 3.594 6.393 2.694 2.954 7.189 5.41 7.189 5.41s-4.495 2.463-7.189 5.41c-2.694 2.954-3.594 6.4-3.594 6.4"></path>
<path d="M0 15.877v-1.027h28.742v1.027h-28.742z"></path>
<path stroke-linejoin="miter" stroke-linecap="butt" stroke-miterlimit="4" stroke-width="0.7442" d="M0.372 15.505v-0.282h27.997v0.282h-27.997z"></path>
</symbol>
<symbol id="icon-Vector" viewBox="0 0 32 32">
<path stroke-linejoin="miter" stroke-linecap="butt" stroke-miterlimit="4" stroke-width="3.7647" d="M30.118 5.647c0 0-4.405 1.242-8.169 5.007s-6.889 10.052-6.889 10.052c0 0-3.144-6.287-6.908-10.052s-8.151-5.007-8.151-5.007"></path>
</symbol>
<symbol id="icon-Star" viewBox="0 0 32 32">
<path d="M15.543 0l-1.243 12.187-8.165-9.134 6.171 10.587-11.986-2.587 11.218 4.946-11.218 4.937 11.986-2.587-6.171 10.587 8.165-9.134 1.243 12.197 1.234-12.197 8.165 9.134-6.171-10.587 11.986 2.587-11.218-4.937 11.218-4.946-11.986 2.587 6.171-10.587-8.165 9.134-1.234-12.187z"></path>
</symbol>
<symbol id="icon-search" viewBox="0 0 32 32">
<path d="M31.008 27.231l-7.58-6.447c-0.784-0.705-1.622-1.029-2.299-0.998 1.789-2.096 2.87-4.815 2.87-7.787 0-6.627-5.373-12-12-12s-12 5.373-12 12 5.373 12 12 12c2.972 0 5.691-1.081 7.787-2.87-0.031 0.677 0.293 1.515 0.998 2.299l6.447 7.58c1.104 1.226 2.907 1.33 4.007 0.23s0.997-2.903-0.23-4.007zM12 20c-4.418 0-8-3.582-8-8s3.582-8 8-8 8 3.582 8 8-3.582 8-8 8z"></path>
</symbol>
</defs>
</svg>
